<?xml version="1.0" standalone="no"?>
<!DOCTYPE svg PUBLIC "-//W3C//DTD SVG 20010904//EN"
 "http://www.w3.org/TR/2001/REC-SVG-20010904/DTD/svg10.dtd">
<svg version="1.0" xmlns="http://www.w3.org/2000/svg"
 width="447.000000pt" height="135.000000pt" viewBox="0 0 447.000000 135.000000"
 preserveAspectRatio="xMidYMid meet">

<g transform="translate(0.000000,135.000000) scale(0.100000,-0.100000)"
fill="#000000" stroke="none">
<path d="M1824 1275 c-192 -42 -315 -180 -338 -381 -9 -70 12 -180 44 -244 29
-56 103 -135 158 -167 97 -57 139 -63 435 -62 l272 1 -55 25 c-30 14 -75 34
-99 44 l-43 19 35 39 c50 55 84 117 101 186 68 258 -88 504 -344 545 -79 12
-89 12 -166 -5z m183 -224 c66 -30 97 -87 102 -182 4 -93 -19 -153 -76 -197
-50 -38 -154 -44 -210 -13 -50 29 -80 74 -94 142 -21 107 25 220 105 255 45
19 124 17 173 -5z"/>
<path d="M446 1254 c-227 -55 -389 -262 -403 -514 -15 -282 138 -507 396 -584
63 -18 226 -22 284 -5 37 10 40 9 94 -35 53 -44 58 -46 120 -46 l65 0 -58 52
c-31 29 -63 57 -70 61 -21 12 -17 21 22 42 47 25 142 129 177 192 62 115 84
296 52 432 -47 200 -198 356 -392 406 -71 19 -209 18 -287 -1z m-2 -349 c-52
-143 -100 -264 -105 -270 -6 -6 -8 79 -7 230 l3 240 55 28 c54 27 142 49 148
37 1 -3 -41 -123 -94 -265z m346 227 l55 -27 3 -240 c1 -138 -1 -235 -6 -230
-8 8 -202 528 -202 539 0 10 103 -18 150 -42z m-68 -392 l119 -325 -16 -41
c-44 -114 -181 -170 -321 -129 -69 20 -132 78 -151 137 -10 35 -5 55 103 350
132 363 135 369 142 348 3 -8 59 -161 124 -340z m-479 -349 c-7 -10 -74 150
-83 198 -23 123 -5 265 47 364 l28 52 5 -305 c3 -168 5 -307 3 -309z m737 547
c16 -34 35 -87 41 -117 15 -73 6 -232 -16 -296 -15 -44 -65 -141 -69 -133 -4
9 6 608 10 608 3 0 18 -28 34 -62z"/>
<path d="M555 710 c-27 -29 -10 -74 28 -78 53 -6 77 46 39 81 -25 22 -45 21
-67 -3z"/>
<path d="M2592 973 l3 -298 29 -63 c62 -133 186 -200 350 -189 115 8 169 30
242 102 95 94 97 104 102 453 l3 292 -120 0 -121 0 0 -270 c0 -298 -3 -316
-60 -345 -16 -8 -49 -15 -74 -15 -58 0 -103 37 -116 95 -5 22 -10 151 -10 288
l0 247 -116 0 -115 0 3 -297z"/>
<path d="M3686 863 c-82 -225 -151 -414 -153 -420 -4 -10 24 -13 119 -13 l124
0 94 290 c51 160 97 287 101 283 3 -5 49 -135 100 -290 l94 -283 123 0 c95 0
123 3 119 13 -2 6 -71 195 -152 420 l-148 407 -137 0 -136 0 -148 -407z"/>
<path d="M3902 678 c-22 -28 -22 -55 -1 -81 25 -32 61 -35 89 -7 24 24 25 48
4 78 -17 25 -74 31 -92 10z"/>
<path d="M1543 200 c-69 -28 -49 -140 26 -140 16 0 34 -7 41 -15 7 -8 17 -15
23 -15 5 0 3 8 -6 18 -13 15 -14 19 -1 36 44 60 -16 143 -83 116z m72 -34 c38
-57 -32 -128 -79 -80 -19 18 -21 75 -4 92 21 21 66 14 83 -12z"/>
<path d="M2005 200 c-75 -30 -59 -140 20 -140 19 0 39 8 50 20 10 11 13 20 8
20 -6 0 -16 -7 -23 -15 -30 -36 -90 -4 -90 48 0 49 59 76 94 42 18 -19 27 -19
20 -1 -4 10 -48 38 -57 35 -1 0 -11 -4 -22 -9z"/>
<path d="M2725 200 c-75 -30 -59 -140 20 -140 34 0 61 22 67 55 2 17 -3 21
-34 23 -22 2 -38 -1 -38 -7 0 -6 14 -11 30 -11 17 0 30 -4 30 -8 0 -14 -35
-42 -53 -42 -25 0 -57 36 -57 63 0 47 61 74 94 42 18 -19 27 -19 20 -1 -4 10
-48 38 -57 35 -1 0 -11 -4 -22 -9z"/>
<path d="M3539 192 c-29 -24 -20 -47 26 -66 26 -11 36 -21 33 -33 -5 -24 -39
-29 -55 -7 -7 10 -16 15 -19 11 -13 -12 19 -37 47 -37 18 0 32 7 39 20 14 26
6 39 -36 56 -36 15 -45 40 -18 51 9 3 25 1 35 -6 11 -6 19 -7 19 -1 0 8 -31
30 -43 30 -3 0 -15 -8 -28 -18z"/>
<path d="M3690 190 c-26 -26 -13 -56 30 -65 25 -5 30 -11 28 -28 -4 -28 -38
-34 -56 -11 -13 18 -14 18 -10 -1 4 -24 51 -33 74 -14 27 22 16 50 -26 66 -41
17 -52 39 -24 50 9 3 25 1 35 -5 30 -19 36 -13 10 8 -29 25 -36 25 -61 0z"/>
<path d="M1700 152 c0 -56 21 -92 55 -92 39 0 55 25 55 86 0 30 -4 54 -10 54
-6 0 -10 -26 -10 -59 0 -51 -3 -61 -20 -66 -34 -11 -50 12 -50 71 0 30 -4 54
-10 54 -5 0 -10 -21 -10 -48z"/>
<path d="M1883 130 c0 -41 2 -58 4 -37 2 20 2 54 0 75 -2 20 -4 3 -4 -38z"/>
<path d="M2163 130 c0 -48 2 -63 6 -42 l6 34 29 -31 c17 -17 34 -31 40 -31 5
0 -5 15 -23 34 l-33 34 28 39 28 38 -36 -34 -37 -34 -4 34 c-2 19 -4 0 -4 -41z"/>
<path d="M2392 146 c3 -30 10 -62 17 -70 19 -23 68 -20 81 3 13 25 13 121 0
121 -6 0 -10 -27 -10 -60 0 -47 -4 -62 -16 -67 -32 -12 -49 11 -52 71 -2 31
-8 56 -14 56 -7 0 -9 -20 -6 -54z"/>
<path d="M2540 130 c0 -40 4 -70 10 -70 6 0 10 14 10 30 0 39 20 38 43 -1 10
-18 20 -29 24 -26 3 4 -2 18 -11 32 -14 22 -15 26 -2 31 21 8 28 32 16 55 -8
14 -21 19 -50 19 l-40 0 0 -70z m78 36 c4 -20 -13 -36 -40 -36 -13 0 -18 8
-18 31 0 27 3 30 27 27 18 -2 29 -10 31 -22z"/>
<path d="M2850 130 l0 -70 43 2 c36 1 38 2 10 5 -27 4 -33 9 -33 29 0 19 5 24
25 24 14 0 25 5 25 10 0 6 -11 10 -25 10 -20 0 -25 5 -25 24 0 19 6 26 28 29
22 3 20 4 -10 6 l-38 1 0 -70z"/>
<path d="M2970 131 c0 -84 19 -98 22 -16 0 30 1 60 2 67 1 6 -5 13 -11 16 -10
3 -13 -15 -13 -67z"/>
<path d="M3058 148 l-3 -53 -24 38 c-13 21 -25 36 -28 34 -6 -6 58 -107 68
-107 5 0 9 32 9 70 0 81 -18 95 -22 18z"/>
<path d="M3133 193 c14 -4 17 -16 17 -69 0 -36 4 -64 10 -64 6 0 10 28 10 64
0 59 2 65 23 69 12 2 0 4 -28 4 -27 1 -42 -1 -32 -4z"/>
<path d="M3382 148 c-11 -29 -23 -61 -27 -70 -4 -11 -3 -18 4 -18 6 0 11 7 11
15 0 11 11 15 40 15 29 0 40 -4 40 -15 0 -8 4 -15 10 -15 5 0 -1 30 -15 66
-14 37 -25 68 -25 70 0 2 -4 4 -9 4 -5 0 -18 -24 -29 -52z m42 0 c9 -35 8 -38
-18 -38 -23 0 -24 2 -13 30 14 36 23 38 31 8z"/>
<path d="M3831 144 c-1 -66 9 -84 49 -84 40 0 50 18 48 84 l-2 61 -3 -55 c-5
-59 -16 -80 -44 -80 -25 0 -33 16 -40 80 l-6 55 -2 -61z"/>
<path d="M4002 128 c0 -40 3 -58 5 -40 5 40 26 42 50 2 22 -38 38 -39 19 -1
-14 26 -14 30 -1 41 35 29 10 70 -42 70 l-33 0 2 -72z m66 35 c-2 -22 -9 -29
-30 -31 -25 -3 -28 0 -28 27 0 28 3 31 31 31 27 0 30 -3 27 -27z"/>
<path d="M4150 130 l0 -70 43 2 c36 1 38 2 10 5 -27 4 -33 9 -33 29 0 19 5 24
25 24 14 0 25 5 25 10 0 6 -11 10 -25 10 -20 0 -25 5 -25 24 0 20 6 25 33 29
28 3 26 4 -10 5 l-43 2 0 -70z"/>
<path d="M4290 130 l0 -70 40 0 c69 0 103 62 64 118 -12 17 -25 22 -60 22
l-44 0 0 -70z m81 50 c14 -8 19 -21 19 -50 0 -42 -18 -60 -59 -60 -19 0 -21 6
-21 60 0 54 2 60 21 60 11 0 29 -5 40 -10z"/>
</g>
</svg>
