<?xml version="1.0" encoding="UTF-8"?>
<svg id="Layer_1" data-name="Layer 1" xmlns="http://www.w3.org/2000/svg" viewBox="0 0 25 25">
  <defs>
    <style>
      .cls-1 {
        fill: none;
      }

      .cls-2 {
        fill: #f26722;
      }
    </style>
  </defs>
  <path class="cls-2" d="M11.62,2.05l-.12.33c-1.27.13-2.43.49-3.49,1.11-.21.12-.42.26-.62.4v9.61l-1.59,4.29L11.62,2.05ZM17.61,3.88c-.2-.14-.41-.27-.62-.4-1.05-.61-2.2-.97-3.45-1.1l-.12-.34,4.2,11.4V3.88ZM19.24,18.2c.33-.42.63-.88.9-1.37.77-1.44,1.16-3.12,1.16-5.02s-.39-3.57-1.16-5.01c-.18-.33-.37-.65-.58-.94v9.68c0,.99-.11,1.88-.32,2.67ZM3.7,11.8c0,1.9.39,3.58,1.16,5.02,1.41,2.64.58.21.58-1.3V5.85c-.21.3-.4.61-.58.94-.77,1.43-1.16,3.1-1.16,5.01ZM18.19,24.65l-2.26-1.87c-1.09.32-2.24.48-3.43.48-2.08,0-3.96-.49-5.65-1.46-1.69-.97-3.02-2.33-4-4.08-.97-1.74-1.46-3.72-1.46-5.92s.49-4.18,1.46-5.92c.97-1.74,2.31-3.1,4-4.08,1.69-.97,3.57-1.46,5.65-1.46s3.99.49,5.68,1.46c1.69.97,3.02,2.33,3.98,4.08.96,1.74,1.44,3.72,1.44,5.92s-.5,4.29-1.51,6.05c-1.01,1.77-2.39,3.12-4.14,4.06l3.07,2.75h-2.83ZM13.53,12.67h2.13l-3.15-8.62-3.15,8.62h2.12c-.03-.1-.05-.21-.05-.33,0-.6.48-1.08,1.08-1.08s1.08.48,1.08,1.08c0,.11-.02.23-.05.33ZM15.65,12.67h-2.13c-.14.43-.55.75-1.03.75s-.89-.31-1.03-.75h-2.12l-1.87,5.11.09-.26c.22.96.61,1.73,1.18,2.31.92.93,2.17,1.39,3.77,1.39s2.84-.46,3.74-1.38c.56-.57.95-1.35,1.16-2.33l-1.77-4.85Z"/>
  <rect class="cls-1" x="-536.37" y="-311.47" width="899.94" height="640.31"/>
  <rect class="cls-1" x="-536.24" y="-311.57" width="900.27" height="640.39"/>
  <rect class="cls-1" x="-536.24" y="-311.48" width="899.94" height="640.31"/>
</svg>